PathFileType	4	(x/y/z)	A01_SLOW_T0026.trc
DataRate	CameraRate	NumFrames	NumMarkers	Units	OrigDataRate	OrigDataStartFrame	OrigNumFrames
240	240	9	48	mm	240	136	361
Frame#	Time	TOP_HEAD			R_AC			L_AC			R_ASIS			L_ASIS			R_PSIS			L_PSIS			SACRAL			L_IC			R_IC			L_GT			R_GT			R_LAT_KNEE			R_MED_KNEE			L_MED_KNEE			L_LAT_KNEE			R_TOE			L_TOE			R_1ST_MET			L_1ST_MET			L_5TH_MET			R_5TH_MET			R_LAT_ANK			R_MED_ANK			L_MED_ANK			L_LAT_ANK			L_HEEL_SUP			R_HEEL_SUP			L_HEEL_LAT			R_HEEL_LAT			L_HEEL_MED			R_HEEL_MED			R_LL_PROX_POST			R_LL_PROX_ANT			R_LL_DIST_ANT			R_LL_DIST_POST			R_THIGH_PROX_POST			R_THIGH_PROX_ANT			R_THIGH_DIST_ANT			R_THIGH_DIST_POST			L_PROS_PROX_ANT			L_PROS_PROX_POST			L_PROS_DIST_POST			L_PROS_DIST_ANT			L_THIGH_PROX_ANT			L_THIGH_PROX_POST			L_THIGH_DIST_POST			L_THIGH_DIST_ANT			
		X1	Y1	Z1	X2	Y2	Z2	X3	Y3	Z3	X4	Y4	Z4	X5	Y5	Z5	X6	Y6	Z6	X7	Y7	Z7	X8	Y8	Z8	X9	Y9	Z9	X10	Y10	Z10	X11	Y11	Z11	X12	Y12	Z12	X13	Y13	Z13	X14	Y14	Z14	X15	Y15	Z15	X16	Y16	Z16	X17	Y17	Z17	X18	Y18	Z18	X19	Y19	Z19	X20	Y20	Z20	X21	Y21	Z21	X22	Y22	Z22	X23	Y23	Z23	X24	Y24	Z24	X25	Y25	Z25	X26	Y26	Z26	X27	Y27	Z27	X28	Y28	Z28	X29	Y29	Z29	X30	Y30	Z30	X31	Y31	Z31	X32	Y32	Z32	X33	Y33	Z33	X34	Y34	Z34	X35	Y35	Z35	X36	Y36	Z36	X37	Y37	Z37	X38	Y38	Z38	X39	Y39	Z39	X40	Y40	Z40	X41	Y41	Z41	X42	Y42	Z42	X43	Y43	Z43	X44	Y44	Z44	X45	Y45	Z45	X46	Y46	Z46	X47	Y47	Z47	X48	Y48	Z48	

136	0.56406	-65.594	1788.9	257.02	-276.9	1568.2	518.78	-286.17	1548.9	58.951	-258.53	1104.4	517.68	-235.69	1033.3	169.21	-465.45	1083	387.1	-452.75	1090.4	255.06	-474.22	1056.3	319.65	-264.97	1147.7	122.68	-300.83	1205.6	518.85	-301.57	952.67	131.81	-304.33	990.16	562.99	-182.14	598.11	530.89	-129.06	592.59	407.67	-309.26	557.8	366.05	-331.2	564.86	209.63	-21.997	90.487	497.59	-245.56	79.475	275.31	-92.855	69.517	435.29	-326.16	56.142	331.8	-357.83	47.48	205.53	-147.03	65.079	558.28	-251.77	133.05	509.88	-228.89	138.21	412.07	-439.45	137.53	316.2	-473.74	132.83	249.11	-566.47	88.995	291.93	-339.02	99.736	432.74	-558.6	59.396	260.61	-340.66	76.739	468.85	-546.95	58.247	324.22	-325.3	73.177	410.34	-294.56	436.9	512.5	-234.24	421.21	550.75	-237.19	346.1	538.21	-286.61	353.99	512.3	-291.92	839.67	551.57	-232.98	880.78	557.16	-199.74	795.71	556.18	-256.89	757.11	547.93	-302.73	474.85	224.05	-356.84	485.72	213.49	-375.59	426.42	223.41	-321.88	422.62	232.07	-248.87	807.19	176.98	-317.42	817.36	157.11	-313.18	742.42	173.48	-250.03	734.05	191.12
137	0.56824	-61.414	1788.7	257.8	-273.02	1567.9	519.01	-281.58	1549	59.221	-254.6	1104.2	517.66	-232.21	1032.9	169.24	-461.69	1083	387.38	-449.07	1090.4	255.33	-470.58	1056.4	319.93	-261.34	1147.5	122.8	-296.86	1205.2	519.03	-298.41	952.48	131.86	-300.37	989.9	563.07	-177.78	597.72	530.1	-125.15	592.63	406.71	-307.91	557.61	366.18	-329.76	564.73	209.74	-7.3316	93.339	497.38	-245.47	79.407	275.3	-77.803	70.733	435.21	-326.07	56.143	331.79	-357.79	47.501	205.53	-131.79	65.55	558.28	-237.89	131.04	509.79	-215.31	136.55	411.96	-439.17	137.69	316.22	-473.47	133.1	249.12	-566.34	89.273	291.92	-324.66	95.73	432.87	-558.53	59.667	260.6	-325.75	72.826	469.02	-546.87	58.507	324.21	-310.3	69.408	410.55	-287.19	434.12	512.2	-226.44	419.72	550.27	-227.87	344.55	537.79	-277.48	351.37	511.96	-287.92	839.3	551.29	-229	880.4	556.97	-195.74	795.34	555.65	-252.91	756.75	547.34	-301.52	474.64	224.14	-355.6	485.67	213.58	-374.51	426.43	223.48	-320.81	422.47	232.15	-246.29	806.81	177.05	-314.8	817.24	157.19	-310.87	742.29	173.57	-247.73	733.65	191.21
138	0.57242	-57.204	1788.5	258.6	-269.11	1567.5	519.26	-276.98	1549.1	59.501	-250.64	1103.9	517.66	-228.73	1032.5	169.27	-457.92	1082.9	387.67	-445.39	1090.3	255.62	-466.94	1056.4	320.22	-257.72	1147.3	122.91	-292.9	1204.6	519.22	-295.25	952.28	131.91	-296.4	989.59	563.16	-173.46	597.29	529.31	-121.32	592.62	405.73	-306.55	557.41	366.32	-328.31	564.59	209.85	7.1757	96.344	497.02	-245.37	79.339	275.29	-62.914	72.134	435.02	-325.98	56.145	331.79	-357.75	47.522	205.54	-116.61	66.181	558.19	-224.06	129.2	509.7	-201.84	135.05	411.84	-438.9	137.86	316.24	-473.2	133.38	249.12	-566.22	89.556	291.91	-310.35	91.926	433.05	-558.45	59.943	260.59	-310.87	69.115	469.23	-546.8	58.771	324.2	-295.36	65.853	410.8	-279.82	431.37	511.96	-218.63	418.25	549.81	-218.56	343.07	537.38	-268.35	348.82	511.67	-283.95	838.9	551.01	-225.03	879.97	556.78	-191.78	794.92	555.14	-248.98	756.36	546.74	-300.3	474.42	224.23	-354.34	485.61	213.67	-373.43	426.43	223.54	-319.73	422.31	232.23	-243.7	806.43	177.11	-312.17	817.1	157.28	-308.54	742.15	173.67	-245.43	733.25	191.28
139	0.5766	-52.962	1788.3	259.42	-265.17	1567.1	519.52	-272.37	1549.2	59.793	-246.66	1103.5	517.67	-225.25	1032.1	169.31	-454.14	1082.9	387.98	-441.71	1090.3	255.92	-463.29	1056.3	320.53	-254.09	1147.1	123.02	-288.93	1204.1	519.43	-292.08	952.06	131.96	-292.42	989.25	563.26	-169.19	596.82	528.52	-117.56	592.55	404.74	-305.16	557.2	366.45	-326.84	564.45	209.96	21.514	99.497	496.49	-245.28	79.271	275.28	-48.201	73.716	434.7	-325.89	56.145	331.78	-357.7	47.543	205.55	-101.51	66.967	558.03	-210.31	127.53	509.64	-188.49	133.73	411.72	-438.62	138.03	316.26	-472.93	133.65	249.13	-566.09	89.844	291.9	-296.1	88.324	433.3	-558.38	60.225	260.58	-296.02	65.608	469.49	-546.72	59.04	324.18	-280.51	62.512	411.09	-272.43	428.66	511.77	-210.84	416.83	549.37	-209.28	341.66	537	-259.23	346.34	511.43	-280.02	838.47	550.74	-221.08	879.5	556.6	-187.85	794.45	554.64	-245.08	755.93	546.16	-299.07	474.2	224.32	-353.07	485.55	213.76	-372.33	426.42	223.61	-318.64	422.15	232.32	-241.11	806.03	177.17	-309.51	816.95	157.37	-306.18	741.99	173.77	-243.12	732.85	191.36
140	0.58078	-48.69	1788	260.25	-261.21	1566.7	519.8	-267.74	1549.2	60.095	-242.66	1103.1	517.7	-221.75	1031.7	169.35	-450.34	1082.8	388.3	-438.01	1090.2	256.24	-459.63	1056.3	320.86	-250.47	1146.8	123.12	-284.96	1203.6	519.64	-288.91	951.83	132.01	-288.42	988.88	563.37	-164.97	596.32	527.72	-113.86	592.44	403.74	-303.75	556.98	366.57	-325.35	564.29	210.07	35.675	102.8	495.8	-245.18	79.201	275.26	-33.674	75.476	434.28	-325.81	56.145	331.78	-357.66	47.566	205.55	-86.489	67.906	557.77	-196.64	126.03	509.59	-175.26	132.58	411.6	-438.33	138.2	316.28	-472.65	133.92	249.13	-565.96	90.141	291.88	-281.91	84.924	433.59	-558.3	60.512	260.57	-281.21	62.304	469.8	-546.64	59.315	324.16	-265.75	59.384	411.43	-265.04	425.99	511.63	-203.06	415.45	548.94	-200.02	340.32	536.63	-250.14	343.94	511.22	-276.11	838	550.47	-217.14	878.98	556.43	-183.96	793.92	554.15	-241.23	755.45	545.59	-297.81	473.97	224.4	-351.78	485.49	213.84	-371.22	426.42	223.68	-317.53	421.98	232.39	-238.5	805.63	177.24	-306.84	816.79	157.46	-303.81	741.81	173.88	-240.79	732.43	191.44
141	0.58495	-44.385	1787.7	261.11	-257.22	1566.3	520.08	-263.11	1549.2	60.408	-238.63	1102.7	517.75	-218.25	1031.2	169.39	-446.52	1082.7	388.64	-434.3	1090.1	256.57	-455.95	1056.2	321.2	-246.86	1146.6	123.22	-280.98	1203	519.86	-285.73	951.59	132.07	-284.42	988.47	563.48	-160.78	595.78	526.93	-110.21	592.29	402.71	-302.3	556.75	366.69	-323.85	564.13	210.18	49.648	106.23	494.97	-245.08	79.129	275.25	-19.343	77.406	433.74	-325.72	56.144	331.77	-357.61	47.588	205.56	-71.564	68.994	557.44	-183.06	124.71	509.56	-162.16	131.59	411.48	-438.05	138.38	316.3	-472.37	134.2	249.13	-565.83	90.445	291.87	-267.8	81.726	433.94	-558.22	60.807	260.56	-266.45	59.202	470.16	-546.56	59.595	324.14	-251.09	56.469	411.81	-257.65	423.38	511.52	-195.3	414.11	548.53	-190.81	339.05	536.28	-241.07	341.62	511.06	-272.23	837.49	550.2	-213.22	878.42	556.26	-180.09	793.35	553.68	-237.41	754.94	545.03	-296.54	473.73	224.49	-350.46	485.41	213.92	-370.08	426.41	223.74	-316.41	421.81	232.47	-235.88	805.21	177.3	-304.16	816.62	157.56	-301.41	741.63	173.99	-238.46	732.02	191.51
142	0.58913	-40.048	1787.3	261.98	-253.21	1565.8	520.38	-258.46	1549.1	60.733	-234.58	1102.3	517.81	-214.74	1030.8	169.44	-442.69	1082.5	388.99	-430.59	1090	256.92	-452.26	1056.2	321.55	-243.24	1146.2	123.33	-276.99	1202.4	520.1	-282.54	951.33	132.13	-280.4	988.02	563.6	-156.64	595.21	526.13	-106.62	592.11	401.65	-300.83	556.52	366.81	-322.32	563.96	210.29	63.424	109.8	493.98	-244.98	79.054	275.24	-5.2181	79.498	433.1	-325.64	56.143	331.77	-357.56	47.611	205.56	-56.743	70.229	557.04	-169.58	123.56	509.56	-149.2	130.76	411.37	-437.76	138.56	316.32	-472.08	134.47	249.14	-565.69	90.76	291.85	-253.77	78.727	434.34	-558.14	61.109	260.54	-251.76	56.301	470.56	-546.48	59.881	324.11	-236.55	53.764	412.22	-250.27	420.82	511.46	-187.56	412.83	548.14	-181.64	337.87	535.94	-232.04	339.39	510.93	-268.36	836.96	549.95	-209.29	877.81	556.1	-176.25	792.73	553.22	-233.62	754.39	544.49	-295.25	473.49	224.57	-349.13	485.34	214	-368.93	426.39	223.8	-315.27	421.63	232.54	-233.24	804.78	177.37	-301.46	816.43	157.66	-299	741.43	174.1	-236.11	731.6	191.58
143	0.59331	-35.678	1787	262.87	-249.16	1565.3	520.69	-253.81	1549.1	61.069	-230.5	1101.8	517.88	-211.22	1030.3	169.49	-438.85	1082.3	389.35	-426.86	1089.9	257.28	-448.55	1056.1	321.92	-239.62	1145.9	123.43	-272.98	1201.8	520.34	-279.34	951.06	132.2	-276.37	987.54	563.73	-152.53	594.62	525.33	-103.07	591.89	400.58	-299.33	556.28	366.92	-320.77	563.79	210.4	76.996	113.49	492.85	-244.88	78.975	275.23	8.6948	81.745	432.35	-325.56	56.141	331.76	-357.51	47.635	205.57	-42.034	71.609	556.55	-156.21	122.58	509.57	-136.39	130.09	411.25	-437.46	138.74	316.33	-471.79	134.75	249.14	-565.55	91.085	291.83	-239.83	75.926	434.8	-558.06	61.421	260.52	-237.14	53.6	471.01	-546.39	60.176	324.09	-222.13	51.266	412.68	-242.9	418.32	511.41	-179.86	411.61	547.75	-172.52	336.76	535.62	-223.04	337.25	510.83	-264.51	836.39	549.72	-205.38	877.18	555.95	-172.43	792.07	552.79	-229.85	753.81	543.98	-293.94	473.24	224.65	-347.78	485.26	214.07	-367.76	426.38	223.86	-314.12	421.45	232.61	-230.59	804.34	177.44	-298.74	816.23	157.76	-296.56	741.22	174.22	-233.75	731.17	191.65
144	0.59749	-31.274	1786.5	263.78	-245.09	1564.8	521.02	-249.15	1549	61.418	-226.4	1101.3	517.98	-207.7	1029.8	169.54	-434.98	1082.1	389.73	-423.12	1089.7	257.66	-444.83	1055.9	322.31	-236	1145.5	123.53	-268.96	1201.1	520.59	-276.13	950.79	132.27	-272.32	987.03	563.86	-148.45	593.99	524.53	-99.567	591.65	399.48	-297.8	556.03	367.02	-319.2	563.6	210.5	90.358	117.29	491.59	-244.78	78.893	275.22	22.389	84.135	431.51	-325.48	56.138	331.76	-357.46	47.659	205.57	-27.449	73.13	556	-142.96	121.76	509.61	-123.73	129.56	411.14	-437.16	138.93	316.34	-471.48	135.04	249.14	-565.41	91.421	291.81	-226	73.321	435.3	-557.97	61.743	260.51	-222.6	51.1	471.51	-546.3	60.48	324.05	-207.84	48.97	413.17	-235.54	415.89	511.39	-172.19	410.43	547.36	-163.45	335.74	535.31	-214.09	335.2	510.75	-260.66	835.79	549.49	-201.46	876.5	555.82	-168.62	791.37	552.38	-226.1	753.2	543.48	-292.6	472.99	224.72	-346.4	485.18	214.14	-366.57	426.36	223.92	-312.94	421.27	232.67	-227.93	803.88	177.51	-296.01	816.02	157.86	-294.1	741	174.33	-231.38	730.73	191.73
